<svg xmlns="http://www.w3.org/2000/svg" xmlns:xlink="http://www.w3.org/1999/xlink" xml:space="preserve" style="shape-rendering:geometricPrecision;text-rendering:geometricPrecision;image-rendering:optimizeQuality;" viewBox="0 0 0.309433 0.3373725" x="0px" y="0px" fill-rule="evenodd" clip-rule="evenodd"><defs><style type="text/css">
   
    .fil0 {fill:white}
   
  </style></defs><g><path class="fil0" d="M0.140579 0.244055c-0.000846457,-0.0127362 -0.000791339,-0.0247992 -0.00120472,-0.0375315 -0.00270079,-0.0087874 -0.00540551,-0.0175748 -0.00811024,-0.0263622 -0.00387008,-0.00872835 -0.00774409,-0.0174567 -0.0116142,-0.026189 -0.00835039,-0.00530315 -0.0157835,-0.00636614 -0.0226339,-0.0165748 -0.00207087,-0.00308268 -0.00545276,-0.00673622 -0.00936614,-0.00983071 -0.00554724,-4.33071e-005 -0.0105866,-0.000913386 -0.0143661,-0.00230709 -0.00531496,0.0068622 -0.00947638,0.00709055 -0.0145984,0.000484252 -0.00109449,0.000480315 -0.00241339,0.000566929 -0.00355118,0.00023622 -0.00282677,0.00285827 -0.00775197,0.00184252 -0.0100591,-0.0038622 -0.00283071,0.00210236 -0.00723622,0.00212598 -0.0100984,9.05512e-005 -0.0028622,0.0074685 -0.00872835,0.00797244 -0.0135551,0.00342126 -0.0062874,0.00505118 -0.0121024,0.00309055 -0.0158346,-0.00466929 -0.0030315,-0.000464567 -0.00494488,-0.00932283 -0.0041378,-0.0125787 -0.00537795,-0.0105709 0.00551575,-0.024626 0.0119331,-0.0219016 0.00281102,-0.0160945 0.0157087,-0.0165945 0.0229134,-0.0124843 0.00379921,-0.0203937 0.012378,-0.0270748 0.0237795,-0.0223071 0.00311024,-0.0129646 0.0100551,-0.0149724 0.0170866,-0.0104134 0.00315748,-0.00994094 0.0083189,-0.0154567 0.014748,-0.0119252 0.00190157,-0.00449606 0.0062126,-0.00838976 0.0095315,-0.00348425 0.00405118,-0.013248 0.00958661,-0.0152559 0.0162598,-0.00874803 0.0170315,-0.0251654 0.0599882,-0.024878 0.0684409,0.0163661 0.0115236,-0.00815354 0.022437,-0.00603937 0.0323071,0.0113465 0.00955512,-0.00473228 0.0147205,-0.000610236 0.0183622,0.0146654 0.00316142,0 0.00472835,0.00327953 0.00500394,0.00348425 0.000933071,5.11811e-005 0.00202756,0.000192913 0.00346063,0.00046063 0.0161811,-0.00970866 0.0293543,-0.0060748 0.0421614,0.0209173 0.00966142,-0.00292126 0.0207205,0.016252 0.0190709,0.0319724 0.00477559,0.00379134 0.00298031,0.0183858 -0.000251969,0.0213976 -0.00444488,0.0113228 -0.0128228,0.0101614 -0.0172756,0.00254331 -0.00679134,0.00553543 -0.0130276,0.0037126 -0.0168268,-0.0051378 -0.00488583,0.00456693 -0.0124291,0.000417323 -0.0138937,-0.00615354 -0.00435827,0.0035 -0.00872441,0.0018622 -0.00894882,0.00195669 -0.0127165,0.0155197 -0.0108898,0.0155394 -0.0264291,0.0216417 -0.00640945,0.00139764 -0.0128189,0.00279528 -0.0192244,0.00419291 -0.0110157,0.0131496 -0.0220315,0.0263031 -0.0330433,0.0394528 -0.00612205,0.0113858 -0.0122008,0.0228819 -0.015622,0.0408543 0.000531496,0.00680709 0.00122047,0.0124921 0.00200394,0.0174567 0.00387008,0.00477165 0.00774409,0.00954331 0.0116142,0.014315 -0.00553937,-0.00244488 -0.0110827,-0.00488976 -0.016622,-0.00733071 -0.00600787,0.00279134 -0.0120157,0.00558661 -0.0180236,0.00837795 0.00226772,-0.00861024 0.00447244,-0.0171339 0.00661417,-0.0258425zm-0.0229646 -0.103276c0.00476378,-0.000413386 -0.0060315,-0.0104409 -0.0111142,-0.0172598 -0.00287008,0.0018189 -0.00740945,0.0031811 -0.0127717,0.00375197 0.0098189,0.00847244 0.00957087,0.0147559 0.0238858,0.0135079zm-0.00702362 -0.0156142c0.00138976,0.0019252 0.00281496,0.00325984 0.00425197,0.00436614 0.000334646,-0.0011378 0.000625984,-0.00224803 0.00088189,-0.00333465 -0.0018622,-0.000192913 -0.00359449,-0.000547244 -0.00513386,-0.0010315zm0.0172677 0.0256654c0.000925197,0.0027874 0.00776378,0.0217953 0.0087126,0.0267126 0.00166142,0.00264567 0.00314173,0.00358661 0.00400394,-0.00122441 0.00540945,-0.0284173 0.00530709,-0.0219213 -0.0111417,-0.0518622 -0.0026063,0.0011378 -0.00605512,0.00185039 -0.0098622,0.00190945 0.00159449,0.00843307 0.00712992,0.0143819 0.0082874,0.0244646zm0.00752362 -0.022748c0.00532677,0.00849606 0.0143543,0.0215276 0.0117008,0.00424409 -0.00065748,-0.000940945 -0.0013189,-0.00188583 -0.00198031,-0.00283071 -0.00317717,0.000598425 -0.00694094,7.08661e-005 -0.00972047,-0.00141339zm0.0336772 -0.00275591c-0.00774016,0.00406299 -0.0152913,0.00344488 -0.0157677,0.0166024 0.0128189,0.00506693 0.0149094,-0.00924016 0.0242913,-0.0145906 -0.00332283,-0.000374016 -0.00546063,0.000251969 -0.00852362,-0.00201181zm-0.0171693 0.0295197c-0.00470866,0.0109528 -0.00370472,0.0103858 -0.00440551,0.0240945 0.000633858,0.00337402 0.00126772,0.00675197 0.00190157,0.010126 0.000535433,0.00756299 0.00107087,0.0151299 0.00160236,0.0226969 0.0049685,-0.00839764 0.00953937,-0.0181732 0.0152205,-0.0240945 0.00235039,-0.00497244 0.016748,-0.0353858 0.0235079,-0.0481929 -0.00414567,0.00234646 -0.00891339,-2.75591e-005 -0.0103071,-0.00740157 -0.00922441,0.00834646 -0.0169961,0.020752 -0.0275197,0.0227717zm0.0237283 0.0193819c-0.000433071,0.00285039 -0.000866142,0.00570079 -0.00129921,0.00855512 0.0100787,-0.0111732 0.0201575,-0.0223465 0.0302362,-0.0335197 0.0026378,-0.000933071 0.00527559,-0.0018622 0.00791339,-0.00279528 0.00334252,-0.00389764 0.00668504,-0.00779921 0.0100315,-0.0116969 -0.00112205,-2.75591e-005 -0.0021811,-0.000413386 -0.00312205,-0.00107874 -0.012,0.00735433 -0.0184016,0.000799213 -0.0200709,-0.0017874 -0.0013937,0.00253937 -0.00335433,0.00452362 -0.00564567,0.00564961 -0.00601181,0.0122244 -0.0120276,0.0244488 -0.0180433,0.0366732zm0.0411535 -0.0249646c0.012126,-0.00312992 0.0203661,-0.00418504 0.0290866,-0.0199409 -0.00194094,-0.0013937 -0.00580315,0.00283465 -0.00980709,0.00283465 -0.000192913,0 -0.000385827,-3.93701e-006 -0.000574803,-1.1811e-005 -0.0018622,0.000874016 -0.00372441,0.00175197 -0.00558661,0.00262598 -0.00394488,0.0030748 -0.0109882,0.00740157 -0.0131181,0.0144921z"/></g></svg>